<?xml version="1.0" encoding="UTF-8" standalone="no"?>
<!DOCTYPE svg PUBLIC "-//W3C//DTD SVG 1.1//EN" "http://www.w3.org/Graphics/SVG/1.1/DTD/svg11.dtd">
<svg width="100%" height="100%" viewBox="0 0 3508 2481" version="1.1" xmlns="http://www.w3.org/2000/svg" xmlns:xlink="http://www.w3.org/1999/xlink" xml:space="preserve" xmlns:serif="http://www.serif.com/" style="fill-rule:evenodd;clip-rule:evenodd;stroke-linecap:round;stroke-linejoin:round;stroke-miterlimit:1.5;">
    <g transform="matrix(1,0,0,1,63.784141,7.266548)">
        <circle cx="1690.153" cy="985.828" r="436.8" style="fill:white;stroke:rgb(255,0,0);stroke-width:166.67px;"/>
    </g>
    <g transform="matrix(1,0,0,1,457.38881,163.901021)">
        <path d="M1420.483,1358.037L1420.483,1464.613C1420.483,1494.024 1396.606,1517.901 1367.195,1517.901L1225.901,1517.901C1196.491,1517.901 1172.613,1494.024 1172.613,1464.613L1172.613,1358.037C1172.613,1328.627 1196.491,1304.749 1225.901,1304.749L1367.195,1304.749C1396.606,1304.749 1420.483,1328.627 1420.483,1358.037Z" style="fill:white;stroke:rgb(255,0,0);stroke-width:104.17px;"/>
    </g>
    <g transform="matrix(1,0,0,1,457.38881,406.119279)">
        <path d="M1420.483,1358.037L1420.483,1464.613C1420.483,1494.024 1396.606,1517.901 1367.195,1517.901L1225.901,1517.901C1196.491,1517.901 1172.613,1494.024 1172.613,1464.613L1172.613,1358.037C1172.613,1328.627 1196.491,1304.749 1225.901,1304.749L1367.195,1304.749C1396.606,1304.749 1420.483,1328.627 1420.483,1358.037Z" style="fill:white;stroke:rgb(255,0,0);stroke-width:104.17px;"/>
    </g>
</svg>
